# generated from PmQm by Jehee Lee
:FULLY-SPECIFIED
:DEGREES
413
root -24.6432 38.1613 -34.7547 22.766 -63.4279 -27.9931
RightUpLeg -8.90811 5.06662 12.4626
RightLeg 13.168 -6.73437 -1.56313
RightFoot -3.89159 -0.253802 3.50115
RightToes -0.000541893 -0.000659172 -0.000493268
Spine 0.90216 -0.909678 7.92218
Spine1 1.41571 -0.926212 11.0556
HEad 22.9005 8.85503 -10.9824
LeftShoulder1 -3.88251e-019 -0 -3.92111e-022
LeftArm -36.496 8.92731 -82.75
LeftForeArm 30.3118 2.08386 1.47511
LeftHand -0.838315 -4.33551 10.2757
RightShoulder 7.45443e-017 -2.42657e-020 1.96277e-018
RightArm -31.2238 -24.2413 69.2541
RightForeArm 19.6427 2.17239 1.84706
RightHand -1.27758 9.71881 -10.1594
LeftUpLeg -8.70272 -1.62519 11.9506
LeftLeg 62.7009 -2.58299 -4.71481
LeftFoot 6.2484 0.291825 -2.26746
LeftToes 3.91355e-005 3.11907e-005 -4.10385e-006
414
root -25.515 38.1565 -34.631 18.1274 -60.8457 -25.0381
RightUpLeg -6.17319 4.44449 12.779
RightLeg 14.4484 -9.29811 -2.51579
RightFoot -5.88363 -0.21791 3.73768
RightToes -0.000541893 -0.000659172 -0.000493268
Spine 1.7632 -0.452623 7.94636
Spine1 3.24018 0.000787968 10.6594
HEad 20.6876 7.16898 -10.8472
LeftShoulder1 -3.88251e-019 -0 -3.92111e-022
LeftArm -35.5609 6.09805 -82.6218
LeftForeArm 27.5756 1.02521 0.659513
LeftHand -0.880277 -4.31352 10.7926
RightShoulder 7.45443e-017 -2.42657e-020 1.96277e-018
RightArm -30.5686 -21.904 69.6513
RightForeArm 27.2561 0.143632 0.763066
RightHand -1.02689 9.09289 -8.58068
LeftUpLeg -12.402 -0.545034 10.8944
LeftLeg 65.6325 0.401642 1.67625
LeftFoot 0.675327 -0.045612 0.492403
LeftToes 3.91355e-005 3.11907e-005 -4.10385e-006
415
root -26.3661 38.1803 -34.4145 14.1091 -58.9383 -21.3784
RightUpLeg -4.77952 3.5097 12.0452
RightLeg 16.0865 -10.7159 -3.2932
RightFoot -8.25932 -0.155222 3.68221
RightToes -0.000541893 -0.000659172 -0.000493268
Spine 1.95907 0.115815 7.44863
Spine1 3.77259 0.956121 9.71366
HEad 20.8353 6.52244 -10.4621
LeftShoulder1 -3.88251e-019 -0 -3.92111e-022
LeftArm -34.5765 4.99071 -82.7452
LeftForeArm 25.5414 -3.47829 -0.858404
LeftHand -0.835228 -4.70523 9.88276
RightShoulder 7.45443e-017 -2.42657e-020 1.96277e-018
RightArm -30.1065 -19.6965 70.028
RightForeArm 33.2198 -1.04155 0.167224
RightHand -0.984854 8.52243 -8.56534
LeftUpLeg -16.23 1.02355 8.73612
LeftLeg 63.9453 1.42198 3.83256
LeftFoot -3.7759 -0.234574 3.89131
LeftToes 3.91355e-005 3.11907e-005 -4.10385e-006
416
root -27.1943 38.258 -34.1372 11.2004 -57.4665 -17.9894
RightUpLeg -3.64889 2.74515 10.9996
RightLeg 16.6502 -11.7085 -3.7711
RightFoot -10.0508 -0.109077 3.63676
RightToes -0.000541893 -0.000659172 -0.000493268
Spine 1.84968 0.857351 6.69496
Spine1 3.70927 2.13241 8.64087
HEad 21.2536 6.19663 -10.4467
LeftShoulder1 -3.88251e-019 -0 -3.92111e-022
LeftArm -33.9086 4.6532 -83.0311
LeftForeArm 26.0796 -7.87496 -2.53227
LeftHand -0.743885 -5.08002 8.54066
RightShoulder 7.45443e-017 -2.42657e-020 1.96277e-018
RightArm -29.4377 -18.2744 70.0508
RightForeArm 33.5039 -0.422924 0.861229
RightHand -1.15728 8.51692 -9.99134
LeftUpLeg -20.0957 3.19776 6.50692
LeftLeg 58.8591 2.78619 5.49615
LeftFoot -5.10347 -0.20348 4.30005
LeftToes 3.91355e-005 3.11907e-005 -4.10385e-006
417
root -27.979 38.3883 -33.8247 8.83689 -56.1925 -15.0633
RightUpLeg -1.97409 2.45033 10.036
RightLeg 15.8272 -13.0392 -4.11598
RightFoot -10.7432 -0.0926529 3.76878
RightToes -0.000541893 -0.000659172 -0.000493268
Spine 1.85495 1.602 5.84989
Spine1 3.85669 3.31218 7.68967
HEad 20.1314 5.74425 -10.9334
LeftShoulder1 -3.88251e-019 -0 -3.92111e-022
LeftArm -33.5191 4.50992 -83.7957
LeftForeArm 27.7653 -11.6532 -3.32804
LeftHand -0.751821 -4.90329 8.77075
RightShoulder 7.45443e-017 -2.42657e-020 1.96277e-018
RightArm -28.3033 -16.8839 69.4078
RightForeArm 30.5457 1.15333 2.41402
RightHand -1.37879 9.11947 -11.359
LeftUpLeg -22.8326 5.25753 4.55951
LeftLeg 50.5107 5.7519 7.84004
LeftFoot -5.49024 -0.251135 5.58747
LeftToes 3.91355e-005 3.11907e-005 -4.10385e-006
418
root -28.7081 38.509 -33.4837 7.05715 -54.9572 -12.7413
RightUpLeg -0.243418 2.42673 9.31941
RightLeg 14.7098 -14.5412 -4.42061
RightFoot -11.3717 -0.0762322 3.81804
RightToes -0.000541893 -0.000659172 -0.000493268
Spine 1.93068 2.12589 4.9266
Spine1 4.08721 4.1224 7.03397
HEad 18.0892 5.46822 -11.6112
LeftShoulder1 -3.88251e-019 -0 -3.92111e-022
LeftArm -33.5404 4.81875 -84.865
LeftForeArm 27.8915 -13.6065 -3.19512
LeftHand -0.863192 -4.6383 10.2638
RightShoulder 7.45443e-017 -2.42657e-020 1.96277e-018
RightArm -27.1684 -14.6713 68.4983
RightForeArm 28.8787 2.29842 3.68839
RightHand -1.50584 9.99788 -11.6954
LeftUpLeg -23.774 7.86567 2.86816
LeftLeg 38.3504 8.61993 7.63667
LeftFoot -3.34088 -0.572104 8.36255
LeftToes 3.91355e-005 3.11907e-005 -4.10385e-006
419
root -29.4049 38.5938 -33.1014 6.11367 -53.8728 -11.0704
RightUpLeg 1.22606 2.47857 8.79342
RightLeg 13.5154 -15.759 -4.47735
RightFoot -12.121 -0.0545897 4.04938
RightToes -0.000541893 -0.000659172 -0.000493268
Spine 1.89469 2.35873 3.9573
Spine1 4.00758 4.50257 6.54372
HEad 16.4284 5.7856 -12.205
LeftShoulder1 -3.88251e-019 -0 -3.92111e-022
LeftArm -34.401 5.74703 -85.5664
LeftForeArm 26.9954 -12.5646 -2.88171
LeftHand -0.882823 -4.70858 10.4248
RightShoulder 7.45443e-017 -2.42657e-020 1.96277e-018
RightArm -26.3513 -11.7978 67.9826
RightForeArm 29.102 2.76701 4.2256
RightHand -1.59103 10.5955 -11.8888
LeftUpLeg -23.1184 13.0523 0.490386
LeftLeg 22.8779 9.72673 5.33363
LeftFoot 1.40801 -1.0559 9.3568
LeftToes 3.91355e-005 3.11907e-005 -4.10385e-006
420
root -30.1043 38.6089 -32.6387 6.13767 -53.2408 -10.3618
RightUpLeg 2.41728 2.40091 8.55452
RightLeg 12.6357 -16.3841 -4.30059
RightFoot -12.7636 -0.0343888 4.20313
RightToes -0.000541893 -0.000659172 -0.000493268
Spine 1.72611 2.46411 3.12526
Spine1 3.59726 4.78457 6.25371
HEad 15.4347 6.48519 -12.447
LeftShoulder1 -3.88251e-019 -0 -3.92111e-022
LeftArm -35.1632 6.90851 -85.6242
LeftForeArm 26.894 -8.62955 -2.12485
LeftHand -0.77573 -4.81178 9.11228
RightShoulder 7.45443e-017 -2.42657e-020 1.96277e-018
RightArm -25.7983 -9.16526 68.0793
RightForeArm 28.8896 3.27878 4.57706
RightHand -1.70173 10.6497 -12.6407
LeftUpLeg -20.4116 4.71073 4.18744
LeftLeg 7.45778 26.6458 0.492452
LeftFoot 4.2731 -1.36243 9.72141
LeftToes 3.91355e-005 3.11907e-005 -4.10385e-006
421
root -30.8705 38.4128 -31.989 7.50931 -53.2115 -11.3582
RightUpLeg 2.81906 1.69188 8.9301
RightLeg 14.0722 -15.715 -4.3934
RightFoot -14.6249 0.0245893 4.30261
RightToes -0.000541893 -0.000659172 -0.000493268
Spine 1.35422 2.62828 2.94465
Spine1 2.80841 5.16335 6.67607
HEad 14.9193 7.30406 -12.3743
LeftShoulder1 -3.88251e-019 -0 -3.92111e-022
LeftArm -35.7973 7.94975 -85.3258
LeftForeArm 27.965 -2.16645 -0.536364
LeftHand -0.686961 -4.67508 8.21031
RightShoulder 7.45443e-017 -2.42657e-020 1.96277e-018
RightArm -25.4371 -7.12451 68.6109
RightForeArm 27.2967 3.93953 5.08756
RightHand -1.76251 10.5006 -13.1906
LeftUpLeg -19.9578 3.33004 5.01051
LeftLeg -1.37084 33.8934 -0.268114
LeftFoot 2.79698 -1.21067 9.59572
LeftToes 3.91355e-005 3.11907e-005 -4.10385e-006
422
root -31.6763 38.3054 -31.211 8.43916 -52.9327 -11.6787
RightUpLeg 3.60028 0.634337 8.69039
RightLeg 14.7689 -14.6936 -4.23637
RightFoot -16.1397 0.114103 5.31053
RightToes -0.000541893 -0.000659172 -0.000493268
Spine 0.910205 2.5751 2.91606
Spine1 1.89474 5.09638 6.7914
HEad 14.7779 8.25147 -12.2377
LeftShoulder1 -3.88251e-019 -0 -3.92111e-022
LeftArm -37.0432 8.99259 -85.0652
LeftForeArm 29.4463 2.34104 1.65632
LeftHand -0.633967 -4.28326 7.88719
RightShoulder 7.45443e-017 -2.42657e-020 1.96277e-018
RightArm -25.1813 -5.57749 69.3841
RightForeArm 25.5166 4.3756 5.50653
RightHand -1.79336 10.5808 -13.3485
LeftUpLeg -19.9624 2.69811 5.02992
LeftLeg -3.72158 35.6197 0.874839
LeftFoot 2.29262 -1.06772 8.82229
LeftToes 3.91355e-005 3.11907e-005 -4.10385e-006
